<svg width="578" height="112" viewBox="0 0 578 112" fill="none" xmlns="http://www.w3.org/2000/svg">
<path d="M111.139 28.6091C111.139 28.6091 102.739 -0.590879 64.9387 0.00912152C38.3387 0.409122 27.7387 20.3091 23.8387 32.1091C22.3387 36.4091 21.6387 40.9091 21.6387 45.5091V54.5091C21.6387 54.5091 -1.06128 54.6091 0.0387245 80.6091C1.13872 106.609 25.1387 110.609 25.1387 110.609L55.5387 59.7091L66.1387 59.6091L34.8387 110.609H45.6387L74.1387 59.6091H84.1387L55.5387 110.609H64.1387L111.139 28.6091Z" fill="white"/>
<path d="M119.139 30.6091L74.1387 110.609H119.139C119.139 110.609 154.939 109.609 154.539 70.6091C154.139 31.6091 119.139 30.6091 119.139 30.6091Z" fill="#F06642" stroke="#F06642" stroke-width="2" stroke-miterlimit="10"/>
<path d="M551.771 91.0227C547.544 91.0227 543.771 89.9432 540.453 87.7841C537.157 85.6023 534.566 82.5 532.68 78.4773C530.816 74.4318 529.884 69.5796 529.884 63.9205C529.884 58.2614 530.828 53.4205 532.714 49.3977C534.623 45.375 537.237 42.2955 540.555 40.1591C543.873 38.0227 547.634 36.9546 551.839 36.9546C555.089 36.9546 557.703 37.5 559.68 38.5909C561.68 39.6591 563.225 40.9091 564.316 42.3409C565.43 43.7727 566.294 45.0341 566.907 46.125H567.521V20.1818H577.714V90H567.759V81.8523H566.907C566.294 82.9659 565.407 84.2386 564.248 85.6705C563.112 87.1023 561.544 88.3523 559.544 89.4205C557.544 90.4886 554.953 91.0227 551.771 91.0227ZM554.021 82.3296C556.953 82.3296 559.43 81.5568 561.453 80.0114C563.498 78.4432 565.044 76.2727 566.089 73.5C567.157 70.7273 567.691 67.5 567.691 63.8182C567.691 60.1818 567.169 57 566.123 54.2727C565.078 51.5455 563.544 49.4205 561.521 47.8977C559.498 46.375 556.998 45.6136 554.021 45.6136C550.953 45.6136 548.396 46.4091 546.35 48C544.305 49.5909 542.759 51.7614 541.714 54.5114C540.691 57.2614 540.18 60.3636 540.18 63.8182C540.18 67.3182 540.703 70.4659 541.748 73.2614C542.794 76.0568 544.339 78.2727 546.384 79.9091C548.453 81.5227 550.998 82.3296 554.021 82.3296Z" fill="white"/>
<path d="M502.96 90V37.6364H512.812V45.9545H513.357C514.312 43.1364 515.994 40.9204 518.403 39.3068C520.835 37.6704 523.585 36.8523 526.653 36.8523C527.289 36.8523 528.039 36.875 528.903 36.9204C529.789 36.9659 530.482 37.0227 530.982 37.0909V46.8409C530.573 46.7273 529.846 46.6023 528.801 46.4659C527.755 46.3068 526.71 46.2273 525.664 46.2273C523.255 46.2273 521.107 46.7386 519.221 47.7614C517.357 48.7614 515.88 50.1591 514.789 51.9545C513.698 53.7273 513.153 55.75 513.153 58.0227V90H502.96Z" fill="white"/>
<path d="M469.302 91.1591C465.984 91.1591 462.984 90.5455 460.302 89.3182C457.62 88.0682 455.495 86.2614 453.927 83.8977C452.382 81.5341 451.609 78.6364 451.609 75.2045C451.609 72.25 452.177 69.8182 453.314 67.9091C454.45 66 455.984 64.4886 457.916 63.375C459.848 62.2614 462.007 61.4205 464.393 60.8523C466.779 60.2841 469.211 59.8523 471.689 59.5568C474.825 59.1932 477.37 58.8977 479.325 58.6705C481.279 58.4205 482.7 58.0227 483.586 57.4773C484.473 56.9318 484.916 56.0455 484.916 54.8182V54.5795C484.916 51.6023 484.075 49.2955 482.393 47.6591C480.734 46.0227 478.257 45.2045 474.961 45.2045C471.529 45.2045 468.825 45.9659 466.848 47.4886C464.893 48.9886 463.541 50.6591 462.791 52.5L453.211 50.3182C454.348 47.1364 456.007 44.5682 458.189 42.6136C460.393 40.6364 462.927 39.2045 465.791 38.3182C468.654 37.4091 471.666 36.9545 474.825 36.9545C476.916 36.9545 479.132 37.2045 481.473 37.7045C483.836 38.1818 486.041 39.0682 488.086 40.3636C490.154 41.6591 491.848 43.5114 493.166 45.9205C494.484 48.3068 495.143 51.4091 495.143 55.2273V90H485.189V82.8409H484.779C484.12 84.1591 483.132 85.4545 481.814 86.7273C480.495 88 478.802 89.0568 476.734 89.8977C474.666 90.7386 472.189 91.1591 469.302 91.1591ZM471.518 82.9773C474.336 82.9773 476.745 82.4205 478.745 81.3068C480.768 80.1932 482.302 78.7386 483.348 76.9432C484.416 75.125 484.95 73.1818 484.95 71.1136V64.3636C484.586 64.7273 483.882 65.0682 482.836 65.3864C481.814 65.6818 480.643 65.9432 479.325 66.1705C478.007 66.375 476.723 66.5682 475.473 66.75C474.223 66.9091 473.177 67.0455 472.336 67.1591C470.359 67.4091 468.552 67.8295 466.916 68.4205C465.302 69.0114 464.007 69.8636 463.029 70.9773C462.075 72.0682 461.598 73.5227 461.598 75.3409C461.598 77.8636 462.529 79.7727 464.393 81.0682C466.257 82.3409 468.632 82.9773 471.518 82.9773Z" fill="white"/>
<path d="M424.037 91.0568C419.127 91.0568 414.843 89.9318 411.184 87.6818C407.525 85.4318 404.684 82.2841 402.662 78.2386C400.639 74.1932 399.628 69.4659 399.628 64.0568C399.628 58.625 400.639 53.875 402.662 49.8068C404.684 45.7386 407.525 42.5795 411.184 40.3295C414.843 38.0795 419.127 36.9545 424.037 36.9545C428.946 36.9545 433.23 38.0795 436.889 40.3295C440.548 42.5795 443.389 45.7386 445.412 49.8068C447.434 53.875 448.446 58.625 448.446 64.0568C448.446 69.4659 447.434 74.1932 445.412 78.2386C443.389 82.2841 440.548 85.4318 436.889 87.6818C433.23 89.9318 428.946 91.0568 424.037 91.0568ZM424.071 82.5C427.252 82.5 429.889 81.6591 431.98 79.9773C434.071 78.2955 435.616 76.0568 436.616 73.2614C437.639 70.4659 438.15 67.3864 438.15 64.0227C438.15 60.6818 437.639 57.6136 436.616 54.8182C435.616 52 434.071 49.7386 431.98 48.0341C429.889 46.3295 427.252 45.4773 424.071 45.4773C420.866 45.4773 418.207 46.3295 416.093 48.0341C414.003 49.7386 412.446 52 411.423 54.8182C410.423 57.6136 409.923 60.6818 409.923 64.0227C409.923 67.3864 410.423 70.4659 411.423 73.2614C412.446 76.0568 414.003 78.2955 416.093 79.9773C418.207 81.6591 420.866 82.5 424.071 82.5Z" fill="white"/>
<path d="M345.745 90V20.1818H371.314C376.268 20.1818 380.37 21 383.62 22.6364C386.87 24.25 389.302 26.4432 390.916 29.2159C392.53 31.9659 393.336 35.0682 393.336 38.5227C393.336 41.4318 392.802 43.8864 391.734 45.8864C390.666 47.8636 389.234 49.4545 387.439 50.6591C385.666 51.8409 383.711 52.7046 381.575 53.25V53.9318C383.893 54.0455 386.155 54.7955 388.359 56.1818C390.586 57.5455 392.427 59.4886 393.882 62.0114C395.336 64.5341 396.064 67.6023 396.064 71.2159C396.064 74.7841 395.223 77.9886 393.541 80.8296C391.882 83.6477 389.314 85.8864 385.836 87.5455C382.359 89.1818 377.916 90 372.507 90H345.745ZM356.28 80.9659H371.484C376.53 80.9659 380.143 79.9886 382.325 78.0341C384.507 76.0796 385.598 73.6364 385.598 70.7046C385.598 68.5 385.041 66.4773 383.927 64.6364C382.814 62.7955 381.223 61.3296 379.155 60.2386C377.109 59.1477 374.677 58.6023 371.859 58.6023H356.28V80.9659ZM356.28 50.3864H370.393C372.757 50.3864 374.882 49.9318 376.768 49.0227C378.677 48.1136 380.189 46.8409 381.302 45.2046C382.439 43.5455 383.007 41.5909 383.007 39.3409C383.007 36.4546 381.995 34.0341 379.973 32.0796C377.95 30.125 374.848 29.1477 370.666 29.1477H356.28V50.3864Z" fill="white"/>
<path d="M311.694 90.6477C309.831 90.6477 308.229 89.9887 306.888 88.6705C305.547 87.3296 304.876 85.7159 304.876 83.8296C304.876 81.9659 305.547 80.375 306.888 79.0568C308.229 77.7159 309.831 77.0455 311.694 77.0455C313.558 77.0455 315.16 77.7159 316.501 79.0568C317.842 80.375 318.513 81.9659 318.513 83.8296C318.513 85.0796 318.194 86.2273 317.558 87.2727C316.944 88.2955 316.126 89.1137 315.104 89.7273C314.081 90.3409 312.944 90.6477 311.694 90.6477Z" fill="white"/>
<path d="M248.864 29.25V20.1818H302.898V29.25H281.114V90H270.614V29.25H248.864Z" fill="white"/>
<path d="M240.058 90.6477C238.195 90.6477 236.592 89.9887 235.251 88.6705C233.91 87.3296 233.24 85.7159 233.24 83.8296C233.24 81.9659 233.91 80.375 235.251 79.0568C236.592 77.7159 238.195 77.0455 240.058 77.0455C241.922 77.0455 243.524 77.7159 244.865 79.0568C246.206 80.375 246.876 81.9659 246.876 83.8296C246.876 85.0796 246.558 86.2273 245.922 87.2727C245.308 88.2955 244.49 89.1137 243.467 89.7273C242.445 90.3409 241.308 90.6477 240.058 90.6477Z" fill="white"/>
<path d="M177.227 29.25V20.1818H231.261V29.25H209.477V90H198.977V29.25H177.227Z" fill="white"/>
</svg>
