<svg width="579" height="113" viewBox="0 0 579 113" fill="none" xmlns="http://www.w3.org/2000/svg">
<path d="M112.139 29.6091C112.139 29.6091 103.739 0.409121 65.9387 1.00912C39.3387 1.40912 28.7387 21.3091 24.8387 33.1091C23.3387 37.4091 22.6387 41.9091 22.6387 46.5091V55.5091C22.6387 55.5091 -0.0612755 55.6091 1.03872 81.6091C2.13872 107.609 26.1387 111.609 26.1387 111.609L56.5387 60.7091L67.1387 60.6091L35.8387 111.609H46.6387L75.1387 60.6091H85.1387L56.5387 111.609H65.1387L112.139 29.6091Z" fill="black" stroke="black" stroke-width="2" stroke-miterlimit="10"/>
<path d="M120.139 31.6091L75.1387 111.609H120.139C120.139 111.609 155.939 110.609 155.539 71.6091C155.139 32.6091 120.139 31.6091 120.139 31.6091Z" fill="#F06642" stroke="#F06642" stroke-width="2" stroke-miterlimit="10"/>
<path d="M552.771 92.0227C548.544 92.0227 544.771 90.9432 541.453 88.7841C538.157 86.6023 535.566 83.5 533.68 79.4773C531.816 75.4318 530.884 70.5796 530.884 64.9205C530.884 59.2614 531.828 54.4205 533.714 50.3977C535.623 46.375 538.237 43.2955 541.555 41.1591C544.873 39.0227 548.634 37.9546 552.839 37.9546C556.089 37.9546 558.703 38.5 560.68 39.5909C562.68 40.6591 564.225 41.9091 565.316 43.3409C566.43 44.7727 567.294 46.0341 567.907 47.125H568.521V21.1818H578.714V91H568.759V82.8523H567.907C567.294 83.9659 566.407 85.2386 565.248 86.6705C564.112 88.1023 562.544 89.3523 560.544 90.4205C558.544 91.4886 555.953 92.0227 552.771 92.0227ZM555.021 83.3296C557.953 83.3296 560.43 82.5568 562.453 81.0114C564.498 79.4432 566.044 77.2727 567.089 74.5C568.157 71.7273 568.691 68.5 568.691 64.8182C568.691 61.1818 568.169 58 567.123 55.2727C566.078 52.5455 564.544 50.4205 562.521 48.8977C560.498 47.375 557.998 46.6136 555.021 46.6136C551.953 46.6136 549.396 47.4091 547.35 49C545.305 50.5909 543.759 52.7614 542.714 55.5114C541.691 58.2614 541.18 61.3636 541.18 64.8182C541.18 68.3182 541.703 71.4659 542.748 74.2614C543.794 77.0568 545.339 79.2727 547.384 80.9091C549.453 82.5227 551.998 83.3296 555.021 83.3296Z" fill="#1D2431"/>
<path d="M503.96 91V38.6364H513.812V46.9545H514.357C515.312 44.1364 516.994 41.9204 519.403 40.3068C521.835 38.6704 524.585 37.8523 527.653 37.8523C528.289 37.8523 529.039 37.875 529.903 37.9204C530.789 37.9659 531.482 38.0227 531.982 38.0909V47.8409C531.573 47.7273 530.846 47.6023 529.801 47.4659C528.755 47.3068 527.71 47.2273 526.664 47.2273C524.255 47.2273 522.107 47.7386 520.221 48.7614C518.357 49.7614 516.88 51.1591 515.789 52.9545C514.698 54.7273 514.153 56.75 514.153 59.0227V91H503.96Z" fill="#1D2431"/>
<path d="M470.302 92.1591C466.984 92.1591 463.984 91.5455 461.302 90.3182C458.62 89.0682 456.495 87.2614 454.927 84.8977C453.382 82.5341 452.609 79.6364 452.609 76.2045C452.609 73.25 453.177 70.8182 454.314 68.9091C455.45 67 456.984 65.4886 458.916 64.375C460.848 63.2614 463.007 62.4205 465.393 61.8523C467.779 61.2841 470.211 60.8523 472.689 60.5568C475.825 60.1932 478.37 59.8977 480.325 59.6705C482.279 59.4205 483.7 59.0227 484.586 58.4773C485.473 57.9318 485.916 57.0455 485.916 55.8182V55.5795C485.916 52.6023 485.075 50.2955 483.393 48.6591C481.734 47.0227 479.257 46.2045 475.961 46.2045C472.529 46.2045 469.825 46.9659 467.848 48.4886C465.893 49.9886 464.541 51.6591 463.791 53.5L454.211 51.3182C455.348 48.1364 457.007 45.5682 459.189 43.6136C461.393 41.6364 463.927 40.2045 466.791 39.3182C469.654 38.4091 472.666 37.9545 475.825 37.9545C477.916 37.9545 480.132 38.2045 482.473 38.7045C484.836 39.1818 487.041 40.0682 489.086 41.3636C491.154 42.6591 492.848 44.5114 494.166 46.9205C495.484 49.3068 496.143 52.4091 496.143 56.2273V91H486.189V83.8409H485.779C485.12 85.1591 484.132 86.4545 482.814 87.7273C481.495 89 479.802 90.0568 477.734 90.8977C475.666 91.7386 473.189 92.1591 470.302 92.1591ZM472.518 83.9773C475.336 83.9773 477.745 83.4205 479.745 82.3068C481.768 81.1932 483.302 79.7386 484.348 77.9432C485.416 76.125 485.95 74.1818 485.95 72.1136V65.3636C485.586 65.7273 484.882 66.0682 483.836 66.3864C482.814 66.6818 481.643 66.9432 480.325 67.1705C479.007 67.375 477.723 67.5682 476.473 67.75C475.223 67.9091 474.177 68.0455 473.336 68.1591C471.359 68.4091 469.552 68.8295 467.916 69.4205C466.302 70.0114 465.007 70.8636 464.029 71.9773C463.075 73.0682 462.598 74.5227 462.598 76.3409C462.598 78.8636 463.529 80.7727 465.393 82.0682C467.257 83.3409 469.632 83.9773 472.518 83.9773Z" fill="#1D2431"/>
<path d="M425.037 92.0568C420.127 92.0568 415.843 90.9318 412.184 88.6818C408.525 86.4318 405.684 83.2841 403.662 79.2386C401.639 75.1932 400.628 70.4659 400.628 65.0568C400.628 59.625 401.639 54.875 403.662 50.8068C405.684 46.7386 408.525 43.5795 412.184 41.3295C415.843 39.0795 420.127 37.9545 425.037 37.9545C429.946 37.9545 434.23 39.0795 437.889 41.3295C441.548 43.5795 444.389 46.7386 446.412 50.8068C448.434 54.875 449.446 59.625 449.446 65.0568C449.446 70.4659 448.434 75.1932 446.412 79.2386C444.389 83.2841 441.548 86.4318 437.889 88.6818C434.23 90.9318 429.946 92.0568 425.037 92.0568ZM425.071 83.5C428.252 83.5 430.889 82.6591 432.98 80.9773C435.071 79.2955 436.616 77.0568 437.616 74.2614C438.639 71.4659 439.15 68.3864 439.15 65.0227C439.15 61.6818 438.639 58.6136 437.616 55.8182C436.616 53 435.071 50.7386 432.98 49.0341C430.889 47.3295 428.252 46.4773 425.071 46.4773C421.866 46.4773 419.207 47.3295 417.093 49.0341C415.003 50.7386 413.446 53 412.423 55.8182C411.423 58.6136 410.923 61.6818 410.923 65.0227C410.923 68.3864 411.423 71.4659 412.423 74.2614C413.446 77.0568 415.003 79.2955 417.093 80.9773C419.207 82.6591 421.866 83.5 425.071 83.5Z" fill="#1D2431"/>
<path d="M346.745 91V21.1818H372.314C377.268 21.1818 381.37 22 384.62 23.6364C387.87 25.25 390.302 27.4432 391.916 30.2159C393.53 32.9659 394.336 36.0682 394.336 39.5227C394.336 42.4318 393.802 44.8864 392.734 46.8864C391.666 48.8636 390.234 50.4545 388.439 51.6591C386.666 52.8409 384.711 53.7046 382.575 54.25V54.9318C384.893 55.0455 387.155 55.7955 389.359 57.1818C391.586 58.5455 393.427 60.4886 394.882 63.0114C396.336 65.5341 397.064 68.6023 397.064 72.2159C397.064 75.7841 396.223 78.9886 394.541 81.8296C392.882 84.6477 390.314 86.8864 386.836 88.5455C383.359 90.1818 378.916 91 373.507 91H346.745ZM357.28 81.9659H372.484C377.53 81.9659 381.143 80.9886 383.325 79.0341C385.507 77.0796 386.598 74.6364 386.598 71.7046C386.598 69.5 386.041 67.4773 384.927 65.6364C383.814 63.7955 382.223 62.3296 380.155 61.2386C378.109 60.1477 375.677 59.6023 372.859 59.6023H357.28V81.9659ZM357.28 51.3864H371.393C373.757 51.3864 375.882 50.9318 377.768 50.0227C379.677 49.1136 381.189 47.8409 382.302 46.2046C383.439 44.5455 384.007 42.5909 384.007 40.3409C384.007 37.4546 382.995 35.0341 380.973 33.0796C378.95 31.125 375.848 30.1477 371.666 30.1477H357.28V51.3864Z" fill="#1D2431"/>
<path d="M312.694 91.6477C310.831 91.6477 309.229 90.9887 307.888 89.6705C306.547 88.3296 305.876 86.7159 305.876 84.8296C305.876 82.9659 306.547 81.375 307.888 80.0568C309.229 78.7159 310.831 78.0455 312.694 78.0455C314.558 78.0455 316.16 78.7159 317.501 80.0568C318.842 81.375 319.513 82.9659 319.513 84.8296C319.513 86.0796 319.194 87.2273 318.558 88.2727C317.944 89.2955 317.126 90.1137 316.104 90.7273C315.081 91.3409 313.944 91.6477 312.694 91.6477Z" fill="#1D2431"/>
<path d="M249.864 30.25V21.1818H303.898V30.25H282.114V91H271.614V30.25H249.864Z" fill="#1D2431"/>
<path d="M241.058 91.6477C239.195 91.6477 237.592 90.9887 236.251 89.6705C234.91 88.3296 234.24 86.7159 234.24 84.8296C234.24 82.9659 234.91 81.375 236.251 80.0568C237.592 78.7159 239.195 78.0455 241.058 78.0455C242.922 78.0455 244.524 78.7159 245.865 80.0568C247.206 81.375 247.876 82.9659 247.876 84.8296C247.876 86.0796 247.558 87.2273 246.922 88.2727C246.308 89.2955 245.49 90.1137 244.467 90.7273C243.445 91.3409 242.308 91.6477 241.058 91.6477Z" fill="#1D2431"/>
<path d="M178.227 30.25V21.1818H232.261V30.25H210.477V91H199.977V30.25H178.227Z" fill="#1D2431"/>
</svg>
